<?xml version="1.0" standalone="no"?>
<!DOCTYPE svg PUBLIC "-//W3C//DTD SVG 20010904//EN"
 "http://www.w3.org/TR/2001/REC-SVG-20010904/DTD/svg10.dtd">
<svg version="1.0" xmlns="http://www.w3.org/2000/svg"
 width="300.000000pt" height="300.000000pt" viewBox="0 0 300.000000 300.000000"
 preserveAspectRatio="xMidYMid meet">
<metadata>
Created by potrace 1.14, written by Peter Selinger 2001-2017
</metadata>
<g transform="translate(0.000000,300.000000) scale(0.100000,-0.100000)"
fill="#000000" stroke="none">
<path d="M1748 1875 l-3 -980 -28 -57 c-18 -36 -43 -68 -69 -87 -84 -62 -229
-59 -313 5 -35 27 -79 100 -91 154 -4 19 -9 38 -10 43 -1 4 -2 27 -3 52 l-1
45 -331 0 -332 0 7 -92 c24 -322 152 -554 386 -700 156 -97 315 -139 541 -142
520 -8 857 274 905 758 5 52 9 1834 5 1961 -1 20 -6 21 -331 20 l-330 0 -2
-980z"/>
</g>
</svg>
